<svg width="31" height="31" viewBox="0 0 31 31" fill="none" xmlns="http://www.w3.org/2000/svg">
<path fill-rule="evenodd" clip-rule="evenodd" d="M8.9375 17.8103V21.7556C8.9375 22.2731 9.3575 22.6931 9.875 22.6931C10.3925 22.6931 10.8125 22.2731 10.8125 21.7556V17.8103C10.8125 17.2931 10.3925 16.8728 9.875 16.8728C9.3575 16.8728 8.9375 17.2931 8.9375 17.8103Z" fill="white"/>
<path fill-rule="evenodd" clip-rule="evenodd" d="M14.5656 17.8103V21.7556C14.5656 22.2731 14.9856 22.6931 15.5031 22.6931C16.0206 22.6931 16.4406 22.2731 16.4406 21.7556V17.8103C16.4406 17.2931 16.0206 16.8728 15.5031 16.8728C14.9856 16.8728 14.5656 17.2931 14.5656 17.8103Z" fill="white"/>
<path fill-rule="evenodd" clip-rule="evenodd" d="M20.1875 17.8103V21.7556C20.1875 22.2731 20.6075 22.6931 21.125 22.6931C21.6425 22.6931 22.0625 22.2731 22.0625 21.7556V17.8103C22.0625 17.2931 21.6425 16.8728 21.125 16.8728C20.6075 16.8728 20.1875 17.2931 20.1875 17.8103Z" fill="white"/>
<path fill-rule="evenodd" clip-rule="evenodd" d="M7.10392 11.8016H4.60942C3.94822 11.8016 3.32212 12.0983 2.90362 12.6101C2.48512 13.1219 2.31862 13.7948 2.45032 14.4428C3.03022 17.3018 4.19392 23.6459 4.68412 26.0636C4.89262 27.0908 5.79562 27.8288 6.84352 27.8288H24.1109C25.1588 27.8288 26.0618 27.0908 26.2703 26.0636C26.7605 23.6459 28.0778 17.3018 28.6577 14.4428C28.7891 13.7948 28.6226 13.1219 28.2044 12.6101C27.7859 12.0983 27.1598 11.8016 26.4986 11.8016H23.9114L20.984 5.0114C20.5394 3.9803 19.5239 3.3125 18.4013 3.3125C16.883 3.3125 14.3222 3.3125 12.8195 3.3125C11.7224 3.3125 10.7252 3.9506 10.2656 4.9469L7.10392 11.8016ZM4.28782 14.0699C4.26802 13.9733 4.29292 13.8731 4.35532 13.7969C4.41772 13.7207 4.51102 13.6766 4.60942 13.6766H26.4986C26.597 13.6766 26.6903 13.7207 26.7527 13.7969C26.8151 13.8731 26.8397 13.9733 26.8202 14.0699C26.2403 16.9289 24.923 23.273 24.4325 25.691C24.4016 25.844 24.2669 25.9538 24.1109 25.9538H6.84352C6.68752 25.9538 6.55282 25.844 6.52192 25.691C6.03142 23.273 4.86772 16.9289 4.28782 14.0699ZM21.8696 11.8016L19.262 5.7539C19.1138 5.4101 18.7754 5.1875 18.4013 5.1875H12.8195C12.4538 5.1875 12.1214 5.4002 11.9684 5.7323L9.16882 11.8016H21.8696Z" fill="white"/>
</svg>
