<svg width="26" height="26" viewBox="0 0 26 26" fill="none" xmlns="http://www.w3.org/2000/svg">
<path d="M5.28125 15.4375H21.5312C21.7093 15.4376 21.8825 15.3793 22.0242 15.2714C22.1658 15.1635 22.2681 15.012 22.3153 14.8403L24.7528 5.90282C24.786 5.78217 24.7908 5.6555 24.767 5.53267C24.7431 5.40985 24.6912 5.29419 24.6154 5.19471C24.5395 5.09523 24.4416 5.01462 24.3295 4.95917C24.2173 4.90371 24.0939 4.87491 23.9688 4.87501H5.17969L4.875 3.10782C4.84125 2.91779 4.74096 2.74599 4.59208 2.62317C4.44321 2.50035 4.25548 2.43453 4.0625 2.43751H2.03125C1.81576 2.43751 1.6091 2.52311 1.45673 2.67548C1.30435 2.82785 1.21875 3.03452 1.21875 3.25001C1.21875 3.46549 1.30435 3.67216 1.45673 3.82453C1.6091 3.9769 1.81576 4.06251 2.03125 4.06251H3.38406L5.12687 13.8125C4.75343 13.8226 4.38564 13.9062 4.04449 14.0585C3.70335 14.2108 3.39555 14.4288 3.13865 14.7C2.61982 15.2478 2.33984 15.9792 2.36031 16.7334C2.38078 17.4877 2.70003 18.2028 3.24781 18.7217C3.79559 19.2405 4.52704 19.5205 5.28125 19.5H5.96375C5.75644 19.9335 5.66235 20.4124 5.69027 20.8921C5.71819 21.3718 5.8672 21.8366 6.1234 22.2431C6.3796 22.6496 6.73462 22.9846 7.15533 23.2168C7.57604 23.4489 8.04871 23.5707 8.52922 23.5707C9.00973 23.5707 9.4824 23.4489 9.90311 23.2168C10.3238 22.9846 10.6788 22.6496 10.935 22.2431C11.1912 21.8366 11.3402 21.3718 11.3682 20.8921C11.3961 20.4124 11.302 19.9335 11.0947 19.5H15.3075C15.1002 19.9335 15.0061 20.4124 15.034 20.8921C15.0619 21.3718 15.211 21.8366 15.4672 22.2431C15.7233 22.6496 16.0784 22.9846 16.4991 23.2168C16.9198 23.4489 17.3925 23.5707 17.873 23.5707C18.3535 23.5707 18.8261 23.4489 19.2469 23.2168C19.6676 22.9846 20.0226 22.6496 20.2788 22.2431C20.535 21.8366 20.684 21.3718 20.7119 20.8921C20.7398 20.4124 20.6457 19.9335 20.4384 19.5H22.75C22.9655 19.5 23.1722 19.4144 23.3245 19.262C23.4769 19.1097 23.5625 18.903 23.5625 18.6875C23.5625 18.472 23.4769 18.2654 23.3245 18.113C23.1722 17.9606 22.9655 17.875 22.75 17.875H5.28125C4.95802 17.875 4.64802 17.7466 4.41946 17.518C4.1909 17.2895 4.0625 16.9795 4.0625 16.6563C4.0625 16.333 4.1909 16.023 4.41946 15.7945C4.64802 15.5659 4.95802 15.4375 5.28125 15.4375ZM22.9044 6.50001L20.9097 13.8125H6.77219L5.46812 6.50001H22.9044ZM9.75 20.7188C9.75 20.9598 9.67852 21.1954 9.5446 21.3959C9.41069 21.5963 9.22034 21.7525 8.99765 21.8447C8.77495 21.937 8.5299 21.9611 8.29348 21.9141C8.05707 21.8671 7.83991 21.751 7.66946 21.5805C7.49902 21.4101 7.38294 21.1929 7.33592 20.9565C7.28889 20.7201 7.31303 20.4751 7.40527 20.2524C7.49752 20.0297 7.65373 19.8393 7.85415 19.7054C8.05457 19.5715 8.2902 19.5 8.53125 19.5C8.85448 19.5 9.16448 19.6284 9.39304 19.857C9.6216 20.0855 9.75 20.3955 9.75 20.7188ZM19.0938 20.7188C19.0938 20.9598 19.0223 21.1954 18.8884 21.3959C18.7544 21.5963 18.5641 21.7525 18.3414 21.8447C18.1187 21.937 17.8736 21.9611 17.6372 21.9141C17.4008 21.8671 17.1837 21.751 17.0132 21.5805C16.8428 21.4101 16.7267 21.1929 16.6797 20.9565C16.6326 20.7201 16.6568 20.4751 16.749 20.2524C16.8413 20.0297 16.9975 19.8393 17.1979 19.7054C17.3983 19.5715 17.634 19.5 17.875 19.5C18.1982 19.5 18.5082 19.6284 18.7368 19.857C18.9653 20.0855 19.0938 20.3955 19.0938 20.7188Z" fill="black"/>
</svg>
