<svg width="12" height="22" viewBox="0 0 12 22" fill="none" xmlns="http://www.w3.org/2000/svg">
<path d="M3.34286 12.4289H0.582857C0.137142 12.4289 0 12.2598 0 11.854C0 10.7548 0 9.62183 0 8.52267C0 8.08301 0.171428 7.91391 0.582857 7.91391H3.34286V5.49577C3.30857 4.43044 3.56571 3.34819 4.09714 2.38432C4.66286 1.42045 5.55429 0.710223 6.58286 0.355112C7.28571 0.10146 7.97143 0 8.70857 0H11.4343C11.8286 0 12 0.169101 12 0.558032V3.68639C12 4.07533 11.8286 4.24443 11.4343 4.24443C10.68 4.24443 9.92571 4.24443 9.17143 4.27825C8.41714 4.31207 8.02286 4.63336 8.02286 5.41122C7.98857 6.23982 8.02286 7.03459 8.02286 7.88009H11.2286C11.6743 7.88009 11.8457 8.04919 11.8457 8.48885V11.8201C11.8457 12.2598 11.7086 12.4289 11.2286 12.4289H8.05714V21.3743C8.05714 21.8478 7.88571 22 7.42286 22H3.94286C3.53143 22 3.36 21.8309 3.36 21.4251L3.34286 12.4289Z" fill="#444444"/>
</svg>
