<svg width="112" height="37" viewBox="0 0 112 37" fill="none" xmlns="http://www.w3.org/2000/svg">
<path fill-rule="evenodd" clip-rule="evenodd" d="M0 36.1483V27.4075C0.740745 27.852 18.8149 26.815 16.7408 14.3704C15.0816 4.41484 4.88891 2.51853 0 2.81483V0C14.5779 0.118519 19.21 8.83955 19.7038 13.1853V18.5186C19.7038 33.9261 6.56794 36.6915 0 36.1483ZM0 16.2964V6.22226H2.66668V13.4816H12.889V16.2964H0ZM35.5744 10H30.4144V24H32.7144V19.2H35.5744C36.8944 19.2 37.9944 18.76 38.8744 17.88C39.7678 16.9867 40.2144 15.8933 40.2144 14.6C40.2144 13.2933 39.7678 12.2 38.8744 11.32C37.9944 10.44 36.8944 10 35.5744 10ZM35.5744 17.04H32.7144V12.16H35.5744C36.2544 12.16 36.8144 12.3933 37.2544 12.86C37.6944 13.3133 37.9144 13.8933 37.9144 14.6C37.9144 15.3067 37.6944 15.8933 37.2544 16.36C36.8144 16.8133 36.2544 17.04 35.5744 17.04ZM44.9113 10V24H47.2113V10H44.9113ZM59.269 24.26C61.2956 24.26 63.009 23.56 64.409 22.16C65.8223 20.7467 66.529 19.0267 66.529 17C66.529 14.9733 65.8223 13.26 64.409 11.86C63.009 10.4467 61.2956 9.74 59.269 9.74C57.2423 9.74 55.5223 10.4467 54.109 11.86C52.709 13.26 52.009 14.9733 52.009 17C52.009 19.0267 52.709 20.7467 54.109 22.16C55.5223 23.56 57.2423 24.26 59.269 24.26ZM59.269 22.02C57.8823 22.02 56.7023 21.5467 55.729 20.6C54.7823 19.6267 54.309 18.4267 54.309 17C54.309 15.56 54.7823 14.3667 55.729 13.42C56.689 12.46 57.869 11.98 59.269 11.98C60.669 11.98 61.8423 12.46 62.789 13.42C63.749 14.3667 64.229 15.56 64.229 17C64.229 18.44 63.749 19.64 62.789 20.6C61.8423 21.5467 60.669 22.02 59.269 22.02ZM79.7269 10V19.5L73.1269 10H71.3269V24H73.6269V14.5L80.2269 24H82.0269V10H79.7269ZM89.823 21.8V18.02H95.423V15.84H89.823V12.2H95.923V10H87.523V24H96.023V21.8H89.823ZM108.808 24H111.328L108.148 18.56C108.975 18.2267 109.642 17.6933 110.148 16.96C110.668 16.2133 110.928 15.3933 110.928 14.5C110.928 13.2333 110.488 12.1733 109.608 11.32C108.742 10.44 107.682 10 106.428 10H100.828V24H103.128V18.9H105.848L108.808 24ZM103.128 12.16H106.428C107.042 12.16 107.562 12.3867 107.988 12.84C108.415 13.2933 108.628 13.8467 108.628 14.5C108.628 15.1533 108.415 15.7067 107.988 16.16C107.562 16.6133 107.042 16.84 106.428 16.84H103.128V12.16Z" fill="#444444"/>
</svg>
