<svg width="26" height="26" viewBox="0 0 26 26" fill="none" xmlns="http://www.w3.org/2000/svg">
<path d="M13 1.625C10.7502 1.625 8.551 2.29213 6.68039 3.54203C4.80978 4.79193 3.35182 6.56847 2.49088 8.64698C1.62993 10.7255 1.40467 13.0126 1.84357 15.2192C2.28248 17.4257 3.36584 19.4525 4.95666 21.0433C6.54749 22.6342 8.57432 23.7175 10.7809 24.1564C12.9874 24.5953 15.2745 24.3701 17.353 23.5091C19.4315 22.6482 21.2081 21.1902 22.458 19.3196C23.7079 17.449 24.375 15.2498 24.375 13C24.375 9.98316 23.1766 7.08989 21.0433 4.95666C18.9101 2.82343 16.0168 1.625 13 1.625ZM13 3.25C14.8241 3.25306 16.6107 3.76774 18.1569 4.73556C19.703 5.70339 20.9466 7.08553 21.7464 8.72491C22.5462 10.3643 22.8701 12.1952 22.6813 14.0094C22.4924 15.8237 21.7984 17.5486 20.6781 18.9881C20.2961 18.3545 19.8407 17.7682 19.3213 17.2412C18.4932 16.4085 17.508 15.7485 16.4229 15.2994C15.3378 14.8503 14.1744 14.621 13 14.625C11.4525 14.6272 9.9321 15.0313 8.58762 15.7975C7.24313 16.5638 6.12064 17.666 5.33 18.9962C4.20775 17.5573 3.51182 15.8324 3.32138 14.0176C3.13093 12.2027 3.45361 10.3709 4.25271 8.73034C5.05181 7.08982 6.29525 5.70647 7.84162 4.73764C9.38799 3.76881 11.1752 3.25339 13 3.25ZM6.5 20.2475C7.0245 19.2225 7.78361 18.3359 8.71555 17.6598C9.64749 16.9836 10.7259 16.5371 11.863 16.3566C13.0002 16.176 14.1639 16.2666 15.2594 16.6208C16.3549 16.975 17.3513 17.5829 18.1675 18.395C18.7064 18.9354 19.1562 19.558 19.5 20.2394C17.719 21.8517 15.4024 22.7446 13 22.7446C10.5976 22.7446 8.28097 21.8517 6.5 20.2394V20.2475ZM13 13C13.8035 13 14.5889 12.7617 15.257 12.3153C15.9251 11.8689 16.4458 11.2345 16.7533 10.4922C17.0607 9.74983 17.1412 8.93299 16.9844 8.14494C16.8277 7.3569 16.4408 6.63303 15.8726 6.06488C15.3045 5.49673 14.5806 5.10981 13.7926 4.95306C13.0045 4.79631 12.1877 4.87676 11.4454 5.18424C10.703 5.49172 10.0686 6.01242 9.62216 6.6805C9.17577 7.34857 8.9375 8.13401 8.9375 8.9375C8.9375 10.0149 9.36552 11.0483 10.1274 11.8101C10.8892 12.572 11.9226 13 13 13ZM13 6.5C13.4821 6.5 13.9534 6.64296 14.3542 6.91079C14.755 7.17863 15.0675 7.55931 15.252 8.00471C15.4364 8.4501 15.4847 8.9402 15.3907 9.41303C15.2966 9.88586 15.0645 10.3202 14.7236 10.6611C14.3827 11.002 13.9484 11.2341 13.4755 11.3282C13.0027 11.4222 12.5126 11.3739 12.0672 11.1895C11.6218 11.005 11.2411 10.6925 10.9733 10.2917C10.7055 9.89086 10.5625 9.41959 10.5625 8.9375C10.5625 8.29103 10.8193 7.67105 11.2764 7.21393C11.7336 6.75681 12.3535 6.5 13 6.5Z" fill="black"/>
</svg>
