<svg width="26" height="20" viewBox="0 0 26 20" fill="none" xmlns="http://www.w3.org/2000/svg">
<path d="M24.9866 2.42181C24.0481 1.30616 22.3153 0.851074 19.0061 0.851074H6.99366C3.60872 0.851074 1.84659 1.33551 0.911594 2.52329C0 3.68138 0 5.38774 0 7.74938V12.2506C0 16.8259 1.0816 19.1489 6.99366 19.1489H19.0062C21.8759 19.1489 23.4661 18.7473 24.4949 17.7627C25.5499 16.7531 26 15.1046 26 12.2506V7.74938C26 5.25883 25.9295 3.54241 24.9866 2.42181ZM16.6921 10.6215L11.2373 13.4723C11.1153 13.5361 10.982 13.5677 10.8488 13.5677C10.698 13.5677 10.5475 13.5271 10.4143 13.4464C10.1633 13.2943 10.0101 13.0223 10.0101 12.729V7.04553C10.0101 6.75266 10.1629 6.48091 10.4133 6.32877C10.6639 6.17663 10.9754 6.16623 11.2354 6.30126L16.6902 9.13375C16.9677 9.27784 17.142 9.56435 17.1424 9.87693C17.1427 10.1898 16.9692 10.4767 16.6921 10.6215Z" fill="#444444"/>
</svg>
